<?xml version="1.0" encoding="utf-8"?>
<!-- Generator: Adobe Illustrator 22.0.1, SVG Export Plug-In . SVG Version: 6.00 Build 0)  -->
<svg version="1.1" id="Layer_1" xmlns="http://www.w3.org/2000/svg" xmlns:xlink="http://www.w3.org/1999/xlink" x="0px" y="0px"
	 width="40px" height="50px" viewBox="0 0 40 50" style="enable-background:new 0 0 40 50;" xml:space="preserve">
<style type="text/css">
	.st0{fill:#C75D28;}
</style>
<path class="st0" d="M39.6,15.8C37.6,6,28.4-0.8,18.3,0.1C13.2,0.5,8.9,2.5,5.4,6.3C1,10.9-0.7,16.5,0.3,22.8
	c0.6,3.9,2.4,7.5,4.5,10.8c3,4.6,6.6,8.7,10.6,12.4c1.5,1.4,3,2.6,4.5,4c0.2-0.1,0.3-0.2,0.4-0.3c4-3.2,7.7-6.8,11-10.7
	c2.7-3.3,5.1-6.7,6.8-10.6C39.8,24.3,40.5,20.1,39.6,15.8z"/>
</svg>
