<?xml version="1.0" encoding="utf-8"?>
<!-- Generator: Adobe Illustrator 22.0.1, SVG Export Plug-In . SVG Version: 6.00 Build 0)  -->
<svg version="1.1" id="Layer_1" xmlns="http://www.w3.org/2000/svg" xmlns:xlink="http://www.w3.org/1999/xlink" x="0px" y="0px"
	 width="40px" height="50px" viewBox="0 0 40 50" style="enable-background:new 0 0 40 50;" xml:space="preserve">
<style type="text/css">
	.st0{fill:#C75D28;}
	.st1{fill:#9B4308;}
</style>
<g>
	<path class="st0" d="M19.9,49.4c-0.7-0.6-1.3-1.2-2-1.7c-0.7-0.6-1.5-1.3-2.2-2c-4.2-3.9-7.7-8-10.5-12.3C2.7,29.4,1.3,26,0.8,22.7
		c-1-6.2,0.7-11.6,5-16.1C9.1,3,13.3,1,18.3,0.6c0.6-0.1,1.2-0.1,1.8-0.1c9.2,0,17.2,6.5,19,15.4c0.8,3.9,0.3,7.9-1.5,12.3
		c-1.5,3.3-3.5,6.6-6.7,10.5C27.6,42.6,24,46.1,19.9,49.4C20,49.3,20,49.3,19.9,49.4z"/>
	<path class="st1" d="M20.1,1c9,0,16.8,6.3,18.5,15c0.8,3.8,0.3,7.7-1.4,12c-1.4,3.3-3.5,6.5-6.6,10.4c-3.2,3.8-6.7,7.2-10.6,10.3
		c-0.6-0.5-1.1-1-1.7-1.4c-0.7-0.6-1.5-1.3-2.2-2c-4.1-3.8-7.7-7.9-10.4-12.2c-2.5-3.9-3.9-7.2-4.4-10.4C0.3,16.6,2,11.3,6.1,7
		c3.3-3.6,7.3-5.5,12.3-5.9C19,1,19.5,1,20.1,1 M20.1,0c-0.6,0-1.2,0-1.8,0.1C13.2,0.5,8.9,2.5,5.4,6.3C1,10.9-0.7,16.5,0.3,22.8
		c0.6,3.9,2.4,7.5,4.5,10.8c3,4.6,6.6,8.7,10.6,12.4c1.5,1.4,3,2.6,4.5,4c0.2-0.1,0.3-0.2,0.4-0.3c4-3.2,7.7-6.8,11-10.7
		c2.7-3.3,5.1-6.7,6.8-10.6c1.7-4.1,2.4-8.3,1.5-12.6C37.7,6.6,29.5,0,20.1,0L20.1,0z"/>
</g>
</svg>
